<?xml version="1.0" encoding="utf-8"?>
<!-- Generator: Adobe Illustrator 19.1.0, SVG Export Plug-In . SVG Version: 6.00 Build 0)  -->
<svg version="1.1" id="Layer_1" xmlns="http://www.w3.org/2000/svg" xmlns:xlink="http://www.w3.org/1999/xlink" x="0px" y="0px"
	 viewBox="371 331 230 130" style="enable-background:new 371 331 230 130;" xml:space="preserve">
<style type="text/css">
	.st0{fill:#539ED0;}
	.st1{fill:#FF443B;}
	.st2{fill:#FFB351;}
	.st3{fill:#005191;}
	.st4{fill:#FFFFFF;}
</style>
<g>
	<g>
		<path class="st0" d="M562,413.9c-7.4,6-16.8,9.6-27.1,9.6H421c-12.7,0-24.1-5.5-31.9-14.2l0,0l7.4,9.3c7.9,8.8,19.3,14.4,32,14.4
			h113.9c10.3,0,19.7-3.6,27.1-9.6L562,413.9L562,413.9z"/>
		<path class="st1" d="M586.5,423.4L586.5,423.4c-11.4,0-19.6-5.2-24.5-9.6l7.5,9.4c3.2,2.9,7.9,6.1,14,8c3.1,1,6.6,1.6,10.5,1.6
			L586.5,423.4z"/>
		<path class="st2" d="M587.1,412.3c-1-5.9-1.7-13.3-1.7-22.3c0-9.4-3-18-8.1-25l-8.8-11.2c0,0,0,0,0,0c5.9,7.4,9.4,16.7,9.4,26.8
			c0,31.4,8.6,42.9,8.6,42.9l0,0l0,0l7.5,9.4C593.9,432.9,589.6,427,587.1,412.3z"/>
		<g>
			<path class="st3" d="M586.5,423.4c0,0-8.6-11.5-8.6-42.9c0-23.7-19.2-43-43-43H421c-23.7,0-43,19.2-43,43c0,23.7,19.2,43,43,43
				h113.9c10.3,0,19.7-3.6,27.1-9.6C566.9,418.2,575.1,423.4,586.5,423.4z"/>
			<g>
				<g>
					<path class="st4" d="M454.6,402.5h-30.3V396l14-14.7c3.4-3.9,5.2-7,5.2-9.4c0-1.9-0.4-3.3-1.2-4.3c-0.8-1-2-1.5-3.5-1.5
						c-1.5,0-2.8,0.6-3.7,2c-1,1.3-1.4,2.9-1.4,4.9h-10.1c0-2.7,0.7-5.1,2-7.4s3.2-4,5.5-5.3c2.4-1.3,5-1.9,7.9-1.9
						c4.7,0,8.3,1.1,10.9,3.3c2.5,2.2,3.8,5.3,3.8,9.4c0,1.7-0.3,3.4-1,5c-0.6,1.6-1.6,3.3-3,5.1s-3.5,4.2-6.5,7.1l-5.6,6.5h17.1
						L454.6,402.5L454.6,402.5z"/>
					<path class="st4" d="M489.9,402.5h-10.1v-32.1l-9.9,2.9v-7.6l19.1-6.6h0.9L489.9,402.5L489.9,402.5z"/>
					<path class="st4" d="M530.4,402.5h-10.1v-32.1l-9.9,2.9v-7.6l19.1-6.6h0.9L530.4,402.5L530.4,402.5z"/>
					<path class="st4" d="M465.2,389.5L465.2,389.5c-2.2,0-3.9-1.8-3.9-3.9l0,0c0-2.2,1.8-3.9,3.9-3.9l0,0c2.2,0,3.9,1.8,3.9,3.9
						l0,0C469.2,387.7,467.4,389.5,465.2,389.5z"/>
					<path class="st4" d="M503.7,389.5L503.7,389.5c-2.2,0-3.9-1.8-3.9-3.9l0,0c0-2.2,1.8-3.9,3.9-3.9l0,0c2.2,0,3.9,1.8,3.9,3.9
						l0,0C507.7,387.7,505.9,389.5,503.7,389.5z"/>
				</g>
			</g>
		</g>
	</g>
	<g>
		<path class="st3" d="M396.1,451.6c-0.4,0.5-1,0.9-1.8,1.2s-1.7,0.4-2.6,0.4c-1,0-1.9-0.2-2.6-0.7c-0.8-0.4-1.4-1.1-1.8-1.9
			c-0.4-0.8-0.6-1.8-0.6-3v-0.8c0-1.2,0.2-2.2,0.6-3c0.4-0.9,1-1.5,1.7-2c0.7-0.5,1.6-0.7,2.6-0.7c1.4,0,2.5,0.3,3.2,1
			s1.2,1.6,1.4,2.9h-2.3c-0.1-0.7-0.3-1.1-0.7-1.5s-0.9-0.5-1.5-0.5c-0.8,0-1.4,0.3-1.9,0.9c-0.4,0.6-0.6,1.5-0.6,2.7v0.7
			c0,1.2,0.2,2.1,0.7,2.8c0.5,0.6,1.1,0.9,2,0.9s1.5-0.2,1.9-0.6v-2h-2.2V447h4.6L396.1,451.6L396.1,451.6z"/>
		<path class="st3" d="M401.9,453.2c-1.3,0-2.3-0.4-3.1-1.2c-0.8-0.8-1.2-1.8-1.2-3.1v-0.2c0-0.9,0.2-1.6,0.5-2.3
			c0.3-0.7,0.8-1.2,1.4-1.6s1.3-0.6,2.1-0.6c1.2,0,2.1,0.4,2.8,1.1s1,1.8,1,3.2v0.9h-5.5c0.1,0.6,0.3,1,0.7,1.4s0.9,0.5,1.4,0.5
			c0.9,0,1.6-0.3,2.1-1l1.1,1.3c-0.4,0.5-0.8,0.9-1.4,1.1C403.3,453.1,402.6,453.2,401.9,453.2z M401.6,446.1
			c-0.5,0-0.8,0.2-1.1,0.5s-0.5,0.8-0.5,1.3h3.2v-0.2c0-0.5-0.1-0.9-0.4-1.2C402.5,446.3,402.1,446.1,401.6,446.1z"/>
		<path class="st3" d="M409.6,442.3v2.1h1.5v1.7h-1.5v4.3c0,0.3,0.1,0.5,0.2,0.7s0.4,0.2,0.7,0.2c0.3,0,0.5,0,0.7-0.1v1.8
			c-0.5,0.1-0.9,0.2-1.4,0.2c-1.6,0-2.5-0.8-2.5-2.5v-4.7H406v-1.7h1.3v-2.1H409.6z"/>
		<path class="st3" d="M425.7,449.2c-0.1,1.2-0.5,2.2-1.4,3c-0.8,0.7-1.9,1.1-3.3,1.1c-1.5,0-2.7-0.5-3.5-1.5s-1.3-2.4-1.3-4.1v-0.7
			c0-1.1,0.2-2.1,0.6-3s1-1.5,1.7-2c0.7-0.5,1.6-0.7,2.6-0.7c1.3,0,2.4,0.4,3.2,1.1s1.3,1.7,1.4,3h-2.4c-0.1-0.8-0.3-1.3-0.6-1.6
			c-0.4-0.3-0.9-0.5-1.6-0.5c-0.8,0-1.4,0.3-1.8,0.9c-0.4,0.6-0.6,1.5-0.6,2.7v0.9c0,1.3,0.2,2.2,0.6,2.8c0.4,0.6,1,0.9,1.8,0.9
			c0.7,0,1.3-0.2,1.7-0.5s0.6-0.9,0.6-1.6L425.7,449.2L425.7,449.2z"/>
		<path class="st3" d="M426.9,448.7c0-0.9,0.2-1.6,0.5-2.3c0.3-0.7,0.8-1.2,1.4-1.6s1.3-0.5,2.2-0.5c1.2,0,2.1,0.4,2.9,1.1
			c0.7,0.7,1.1,1.7,1.2,2.9l0,0.6c0,1.3-0.4,2.4-1.1,3.2c-0.7,0.8-1.7,1.2-3,1.2c-1.2,0-2.2-0.4-3-1.2c-0.7-0.8-1.1-1.9-1.1-3.3
			L426.9,448.7L426.9,448.7z M429.2,448.8c0,0.8,0.1,1.5,0.5,1.9s0.8,0.6,1.3,0.6c0.6,0,1-0.2,1.3-0.6c0.3-0.4,0.5-1.1,0.5-2.1
			c0-0.8-0.2-1.4-0.5-1.9c-0.3-0.4-0.8-0.7-1.3-0.7c-0.6,0-1,0.2-1.3,0.7C429.3,447.2,429.2,447.9,429.2,448.8z"/>
		<path class="st3" d="M438.6,444.4l0.1,1c0.6-0.8,1.5-1.2,2.5-1.2c0.9,0,1.6,0.3,2,0.8c0.5,0.5,0.7,1.3,0.7,2.4v5.6h-2.3v-5.5
			c0-0.5-0.1-0.9-0.3-1.1c-0.2-0.2-0.6-0.3-1.1-0.3c-0.6,0-1.1,0.3-1.5,0.8v6.1h-2.3v-8.6H438.6z"/>
		<path class="st3" d="M447.9,444.4l0.1,1c0.6-0.8,1.5-1.2,2.5-1.2c0.9,0,1.6,0.3,2,0.8c0.5,0.5,0.7,1.3,0.7,2.4v5.6h-2.3v-5.5
			c0-0.5-0.1-0.9-0.3-1.1c-0.2-0.2-0.6-0.3-1.1-0.3c-0.6,0-1.1,0.3-1.5,0.8v6.1h-2.3v-8.6H447.9z"/>
		<path class="st3" d="M458.8,453.2c-1.3,0-2.3-0.4-3.1-1.2c-0.8-0.8-1.2-1.8-1.2-3.1v-0.2c0-0.9,0.2-1.6,0.5-2.3
			c0.3-0.7,0.8-1.2,1.4-1.6s1.3-0.6,2.1-0.6c1.2,0,2.1,0.4,2.8,1.1s1,1.8,1,3.2v0.9h-5.5c0.1,0.6,0.3,1,0.7,1.4s0.9,0.5,1.4,0.5
			c0.9,0,1.6-0.3,2.1-1l1.1,1.3c-0.4,0.5-0.8,0.9-1.4,1.1C460.2,453.1,459.6,453.2,458.8,453.2z M458.6,446.1
			c-0.5,0-0.8,0.2-1.1,0.5s-0.5,0.8-0.5,1.3h3.2v-0.2c0-0.5-0.1-0.9-0.4-1.2C459.4,446.3,459.1,446.1,458.6,446.1z"/>
		<path class="st3" d="M467.4,451.4c0.4,0,0.8-0.1,1-0.4s0.4-0.5,0.4-0.9h2.2c0,0.6-0.2,1.1-0.5,1.6s-0.8,0.9-1.3,1.1
			c-0.5,0.3-1.1,0.4-1.8,0.4c-1.2,0-2.2-0.4-2.9-1.2c-0.7-0.8-1.1-1.9-1.1-3.3v-0.1c0-1.3,0.4-2.4,1.1-3.2s1.7-1.2,2.9-1.2
			c1.1,0,2,0.3,2.6,0.9c0.6,0.6,1,1.4,1,2.5h-2.2c0-0.5-0.1-0.8-0.4-1.1s-0.6-0.4-1.1-0.4c-0.5,0-1,0.2-1.2,0.6
			c-0.3,0.4-0.4,1-0.4,1.9v0.2c0,0.9,0.1,1.5,0.4,1.9C466.4,451.2,466.8,451.4,467.4,451.4z"/>
		<path class="st3" d="M475.2,442.3v2.1h1.5v1.7h-1.5v4.3c0,0.3,0.1,0.5,0.2,0.7s0.4,0.2,0.7,0.2c0.3,0,0.5,0,0.7-0.1v1.8
			c-0.5,0.1-0.9,0.2-1.4,0.2c-1.6,0-2.5-0.8-2.5-2.5v-4.7h-1.3v-1.7h1.3v-2.1H475.2z"/>
		<path class="st3" d="M481.8,453.2c-1.3,0-2.3-0.4-3.1-1.2c-0.8-0.8-1.2-1.8-1.2-3.1v-0.2c0-0.9,0.2-1.6,0.5-2.3
			c0.3-0.7,0.8-1.2,1.4-1.6s1.3-0.6,2.1-0.6c1.2,0,2.1,0.4,2.8,1.1s1,1.8,1,3.2v0.9h-5.5c0.1,0.6,0.3,1,0.7,1.4s0.9,0.5,1.4,0.5
			c0.9,0,1.6-0.3,2.1-1l1.1,1.3c-0.4,0.5-0.8,0.9-1.4,1.1C483.2,453.1,482.5,453.2,481.8,453.2z M481.5,446.1
			c-0.5,0-0.8,0.2-1.1,0.5s-0.5,0.8-0.5,1.3h3.2v-0.2c0-0.5-0.1-0.9-0.4-1.2C482.4,446.3,482,446.1,481.5,446.1z"/>
		<path class="st3" d="M486.4,448.7c0-1.4,0.3-2.4,0.9-3.2c0.6-0.8,1.4-1.2,2.5-1.2c0.8,0,1.5,0.3,2.1,0.9v-4.4h2.3v12.3h-2.1
			l-0.1-0.9c-0.6,0.7-1.3,1.1-2.2,1.1c-1,0-1.8-0.4-2.5-1.2C486.7,451.2,486.4,450.1,486.4,448.7z M488.7,448.9
			c0,0.8,0.1,1.4,0.4,1.9c0.3,0.4,0.7,0.6,1.2,0.6c0.7,0,1.2-0.3,1.5-0.9v-3.4c-0.3-0.6-0.8-0.9-1.5-0.9
			C489.3,446.1,488.7,447,488.7,448.9z"/>
		<path class="st3" d="M496,451.9c0-0.4,0.1-0.7,0.4-0.9c0.2-0.2,0.6-0.3,0.9-0.3c0.4,0,0.7,0.1,0.9,0.3c0.2,0.2,0.4,0.5,0.4,0.9
			c0,0.4-0.1,0.7-0.4,0.9s-0.6,0.3-0.9,0.3s-0.7-0.1-0.9-0.3S496,452.3,496,451.9z"/>
		<path class="st3" d="M514.1,451.6c-0.4,0.5-1,0.9-1.8,1.2c-0.8,0.3-1.7,0.4-2.6,0.4c-1,0-1.9-0.2-2.6-0.7
			c-0.8-0.4-1.4-1.1-1.8-1.9c-0.4-0.8-0.6-1.8-0.6-3v-0.8c0-1.2,0.2-2.2,0.6-3c0.4-0.9,1-1.5,1.7-2c0.7-0.5,1.6-0.7,2.6-0.7
			c1.4,0,2.5,0.3,3.2,1c0.8,0.7,1.2,1.6,1.4,2.9h-2.3c-0.1-0.7-0.3-1.1-0.7-1.5s-0.9-0.5-1.5-0.5c-0.8,0-1.4,0.3-1.9,0.9
			s-0.6,1.5-0.6,2.7v0.7c0,1.2,0.2,2.1,0.7,2.8c0.5,0.6,1.1,0.9,2,0.9s1.5-0.2,1.9-0.6v-2h-2.2V447h4.6L514.1,451.6L514.1,451.6z"/>
		<path class="st3" d="M519.9,453.2c-1.3,0-2.3-0.4-3.1-1.2c-0.8-0.8-1.2-1.8-1.2-3.1v-0.2c0-0.9,0.2-1.6,0.5-2.3
			c0.3-0.7,0.8-1.2,1.4-1.6s1.3-0.6,2.1-0.6c1.2,0,2.1,0.4,2.8,1.1c0.7,0.8,1,1.8,1,3.2v0.9H518c0.1,0.6,0.3,1,0.7,1.4
			s0.9,0.5,1.4,0.5c0.9,0,1.6-0.3,2.1-1l1.1,1.3c-0.3,0.5-0.8,0.9-1.4,1.1C521.3,453.1,520.7,453.2,519.9,453.2z M519.7,446.1
			c-0.5,0-0.8,0.2-1.1,0.5c-0.3,0.3-0.5,0.8-0.6,1.3h3.2v-0.2c0-0.5-0.1-0.9-0.4-1.2C520.5,446.3,520.2,446.1,519.7,446.1z"/>
		<path class="st3" d="M527.6,442.3v2.1h1.5v1.7h-1.5v4.3c0,0.3,0.1,0.5,0.2,0.7s0.4,0.2,0.7,0.2c0.3,0,0.5,0,0.7-0.1v1.8
			c-0.5,0.1-0.9,0.2-1.4,0.2c-1.6,0-2.5-0.8-2.5-2.5v-4.7h-1.3v-1.7h1.3v-2.1H527.6z"/>
		<path class="st3" d="M544.1,453.1h-2.4v-5H537v5h-2.4v-11.6h2.4v4.7h4.7v-4.7h2.4V453.1z"/>
		<path class="st3" d="M550.1,453.2c-1.3,0-2.3-0.4-3.1-1.2c-0.8-0.8-1.2-1.8-1.2-3.1v-0.2c0-0.9,0.2-1.6,0.5-2.3
			c0.3-0.7,0.8-1.2,1.4-1.6s1.3-0.6,2.1-0.6c1.2,0,2.1,0.4,2.8,1.1s1,1.8,1,3.2v0.9h-5.5c0.1,0.6,0.3,1,0.7,1.4s0.8,0.5,1.4,0.5
			c0.9,0,1.6-0.3,2.1-1l1.1,1.3c-0.4,0.5-0.8,0.9-1.4,1.1C551.5,453.1,550.8,453.2,550.1,453.2z M549.8,446.1
			c-0.5,0-0.8,0.2-1.1,0.5c-0.3,0.3-0.5,0.8-0.5,1.3h3.2v-0.2c0-0.5-0.2-0.9-0.4-1.2C550.7,446.3,550.3,446.1,549.8,446.1z"/>
		<path class="st3" d="M557.5,453.1h-2.3v-12.3h2.3V453.1z"/>
		<path class="st3" d="M567.1,448.8c0,1.3-0.3,2.4-0.9,3.2s-1.4,1.2-2.5,1.2c-0.9,0-1.6-0.3-2.1-0.9v4.1h-2.3v-12h2.1l0.1,0.9
			c0.6-0.7,1.3-1,2.2-1c1.1,0,1.9,0.4,2.5,1.2c0.6,0.8,0.9,1.9,0.9,3.3V448.8z M564.8,448.7c0-0.8-0.1-1.4-0.4-1.9
			c-0.3-0.4-0.7-0.7-1.2-0.7c-0.7,0-1.2,0.3-1.5,0.8v3.5c0.3,0.6,0.8,0.9,1.5,0.9C564.2,451.4,564.8,450.5,564.8,448.7z"/>
		<path class="st3" d="M568.3,451.9c0-0.4,0.1-0.7,0.4-0.9c0.2-0.2,0.6-0.3,0.9-0.3c0.4,0,0.7,0.1,0.9,0.3c0.2,0.2,0.4,0.5,0.4,0.9
			c0,0.4-0.1,0.7-0.4,0.9s-0.6,0.3-0.9,0.3s-0.7-0.1-0.9-0.3C568.5,452.6,568.3,452.3,568.3,451.9z"/>
		<path class="st3" d="M574.7,442.3h-1v3.5h-1.1v-3.5h-1.1v-0.9h3.3V442.3z M578.7,443l-0.9,2.8h-0.6l-0.9-2.8v2.8h-1v-4.3h1.3
			l0.9,2.9l1-2.9h1.2v4.3h-1V443L578.7,443z"/>
	</g>
</g>
</svg>
