<?xml version="1.0" standalone="no"?>
<!DOCTYPE svg PUBLIC "-//W3C//DTD SVG 20010904//EN"
 "http://www.w3.org/TR/2001/REC-SVG-20010904/DTD/svg10.dtd">
<svg version="1.0" xmlns="http://www.w3.org/2000/svg"
 width="600.000000pt" height="600.000000pt" viewBox="0 0 600.000000 600.000000"
 preserveAspectRatio="xMidYMid meet">
<metadata>
Created by potrace 1.10, written by Peter Selinger 2001-2011
</metadata>
<g transform="translate(0.000000,600.000000) scale(0.100000,-0.100000)"
fill="#8338ec" stroke="none">
<path d="M915 4763 c-66 -8 -171 -70 -216 -127 -10 -13 -33 -52 -49 -85 l-30
-60 0 -1501 0 -1500 32 -66 c36 -75 112 -151 186 -186 l47 -23 2105 0 2105 0
55 29 c76 41 141 105 176 173 l29 58 3 1508 2 1507 -32 66 c-36 75 -112 150
-186 186 l-47 23 -2075 1 c-1141 1 -2088 -1 -2105 -3z m4125 -311 c19 -16 21
-27 22 -133 1 -64 -2 -121 -6 -128 -11 -17 -4117 -16 -4134 1 -7 7 -12 44 -12
98 0 119 8 160 34 170 12 5 933 9 2047 9 1920 1 2028 0 2049 -17z m-2939 -835
c73 -35 139 -98 174 -167 26 -50 29 -65 29 -160 1 -91 -2 -111 -22 -152 -38
-76 -105 -143 -178 -178 -57 -26 -74 -30 -154 -30 -81 0 -97 3 -156 32 -160
78 -241 258 -191 424 23 73 43 108 93 157 42 41 57 51 144 91 57 26 191 17
261 -17z m2630 -44 c35 -21 42 -53 38 -162 -3 -60 -9 -84 -23 -100 l-19 -21
-845 0 -846 0 -23 22 c-21 20 -23 30 -23 122 0 108 2 113 40 139 22 16 91 17
848 17 760 0 826 -1 853 -17z m-1 -578 c36 -18 44 -53 39 -164 -3 -60 -9 -85
-22 -98 -17 -17 -66 -18 -866 -18 -821 0 -850 1 -870 19 -19 17 -21 30 -21
117 0 53 3 105 6 114 17 44 26 44 887 45 709 0 822 -2 847 -15z m-3097 -117
c82 -64 160 -94 265 -103 144 -12 272 24 370 103 42 33 46 34 103 28 95 -9
179 -76 237 -186 23 -42 49 -130 66 -225 21 -108 18 -310 -5 -365 -26 -65 -80
-129 -128 -152 -46 -23 -49 -23 -574 -26 -591 -3 -589 -3 -660 66 -84 81 -108
191 -88 402 13 139 34 218 85 317 41 80 130 156 192 166 75 11 96 7 137 -25z
m3118 -505 c10 -11 14 -47 14 -125 0 -105 -1 -110 -25 -128 -24 -19 -52 -20
-858 -20 -993 0 -892 -16 -892 141 0 75 4 106 16 124 l16 25 858 0 c785 0 859
-1 871 -17z"/>
</g>
</svg>
