<?xml version="1.0" standalone="no"?>
<!DOCTYPE svg PUBLIC "-//W3C//DTD SVG 20010904//EN"
 "http://www.w3.org/TR/2001/REC-SVG-20010904/DTD/svg10.dtd">
<svg version="1.0" xmlns="http://www.w3.org/2000/svg"
 width="600.000000pt" height="600.000000pt" viewBox="0 0 600.000000 600.000000"
 preserveAspectRatio="xMidYMid meet">
<metadata>
Created by potrace 1.10, written by Peter Selinger 2001-2011
</metadata>
<g transform="translate(0.000000,600.000000) scale(0.100000,-0.100000)"
fill="#ffbe0b" stroke="none">
<path d="M2890 5985 c0 -8 -12 -17 -27 -20 -45 -10 -114 -45 -173 -88 -57 -41
-171 -155 -1410 -1408 -1209 -1224 -1179 -1193 -1205 -1241 -25 -45 -52 -103
-63 -139 -16 -48 -15 -215 2 -259 45 -120 105 -193 193 -235 50 -24 70 -27
153 -27 124 1 184 22 335 118 68 43 194 167 810 790 1043 1057 1279 1296 1301
1321 10 11 46 35 79 52 76 39 128 41 202 5 55 -27 97 -69 1119 -1104 1118
-1133 1042 -1060 1179 -1128 47 -23 151 -52 186 -52 42 0 132 34 189 71 56 36
155 136 171 173 5 12 13 28 18 36 5 8 14 28 20 43 6 15 16 25 21 22 6 -4 10
29 10 90 0 61 -4 94 -10 90 -5 -3 -15 7 -21 22 -51 124 -13 84 -1120 1203
-1464 1481 -1549 1565 -1617 1604 -35 20 -70 36 -78 36 -24 0 -55 20 -49 31 4
5 -37 9 -104 9 -91 0 -111 -3 -111 -15z"/>
<path d="M2901 4253 c-54 -19 -94 -57 -766 -725 -275 -273 -652 -647 -838
-830 l-337 -333 0 -1068 c0 -780 3 -1081 12 -1115 21 -84 65 -137 141 -170 21
-9 185 -12 637 -12 l610 0 2 802 3 803 600 0 600 0 3 -803 2 -802 604 0 c530
0 608 2 642 16 59 24 99 59 128 110 l26 47 0 1101 -1 1101 -932 936 c-825 828
-937 937 -974 947 -56 16 -108 14 -162 -5z m1377 -3008 c1 -99 0 -190 -3 -202
-5 -23 -7 -23 -189 -23 -139 0 -186 3 -194 13 -12 14 -18 369 -7 387 4 7 71
10 198 8 l192 -3 3 -180z m480 -17 l-3 -203 -184 -3 c-127 -2 -188 1 -197 9
-11 9 -14 52 -14 199 0 102 3 190 7 193 3 4 93 7 200 7 l193 0 -2 -202z m-483
-488 l0 -205 -175 -3 c-96 -1 -185 0 -197 3 -23 5 -23 6 -23 204 0 150 3 201
13 204 6 3 95 5 197 4 l185 -2 0 -205z m480 0 l0 -205 -184 -3 c-127 -2 -188
1 -197 9 -19 16 -20 379 -2 397 9 9 62 12 198 10 l185 -3 0 -205z"/>
<path d="M2427 1544 c-4 -4 -7 -353 -7 -776 l0 -768 255 0 255 0 0 649 0 650
-27 18 c-16 10 -57 32 -93 50 -36 17 -132 64 -215 105 -82 40 -153 74 -156 76
-3 1 -8 -1 -12 -4z"/>
</g>
</svg>
