<!-- Generated by IcoMoon.io -->
<svg version="1.1" xmlns="http://www.w3.org/2000/svg" width="512" height="448" viewBox="0 0 512 448">
<title></title>
<g id="icomoon-ignore">
</g>
<path fill="#d600ff" d="M224 303c0-33-8-71-41-71-10 10-23.75 16-39 16s-29-6-39-16c-33 0-41 38-41 71 0 18.25 12 33 26.75 33h106.5c14.75 0 26.75-14.75 26.75-33zM192 192c0-26.5-21.5-48-48-48s-48 21.5-48 48 21.5 48 48 48 48-21.5 48-48zM448 312v-16c0-4.5-3.5-8-8-8h-176c-4.5 0-8 3.5-8 8v16c0 4.5 3.5 8 8 8h176c4.5 0 8-3.5 8-8zM352 248v-16c0-4.5-3.5-8-8-8h-80c-4.5 0-8 3.5-8 8v16c0 4.5 3.5 8 8 8h80c4.5 0 8-3.5 8-8zM448 248v-16c0-4.5-3.5-8-8-8h-48c-4.5 0-8 3.5-8 8v16c0 4.5 3.5 8 8 8h48c4.5 0 8-3.5 8-8zM448 184v-16c0-4.5-3.5-8-8-8h-176c-4.5 0-8 3.5-8 8v16c0 4.5 3.5 8 8 8h176c4.5 0 8-3.5 8-8zM32 96h448v-24c0-4.5-3.5-8-8-8h-432c-4.5 0-8 3.5-8 8v24zM512 72v304c0 22-18 40-40 40h-432c-22 0-40-18-40-40v-304c0-22 18-40 40-40h432c22 0 40 18 40 40z"></path>
</svg>
