<?xml version="1.0" standalone="no"?>
<!DOCTYPE svg PUBLIC "-//W3C//DTD SVG 20010904//EN"
 "http://www.w3.org/TR/2001/REC-SVG-20010904/DTD/svg10.dtd">
<svg version="1.0" xmlns="http://www.w3.org/2000/svg"
 width="900.000000pt" height="900.000000pt" viewBox="0 0 900.000000 900.000000"
 preserveAspectRatio="xMidYMid meet">
<metadata>
Created by potrace 1.10, written by Peter Selinger 2001-2011
</metadata>
<g transform="translate(0.000000,900.000000) scale(0.100000,-0.100000)"
fill="#3a86ff" stroke="none">
<path d="M4137 8986 c-4 -10 -29 -16 -74 -20 -153 -13 -427 -55 -533 -81 -30
-8 -89 -21 -130 -31 -41 -9 -93 -22 -115 -29 -22 -8 -87 -28 -145 -45 -100
-29 -144 -45 -217 -76 -17 -8 -36 -14 -42 -14 -10 0 -43 -13 -136 -55 -27 -13
-79 -35 -115 -50 -63 -26 -150 -68 -180 -85 -8 -5 -35 -19 -60 -32 -25 -12
-74 -40 -109 -61 -36 -22 -72 -42 -80 -46 -24 -10 -136 -83 -335 -218 -27 -19
-66 -47 -85 -64 -20 -16 -40 -33 -46 -37 -48 -34 -108 -83 -151 -121 -27 -25
-79 -71 -115 -102 -82 -73 -235 -226 -308 -308 -31 -36 -76 -88 -101 -115 -46
-51 -100 -118 -155 -190 -75 -98 -271 -390 -286 -427 -4 -8 -24 -44 -46 -80
-21 -35 -49 -84 -61 -109 -13 -25 -27 -52 -31 -60 -17 -28 -101 -208 -101
-214 0 -4 -13 -33 -29 -65 -15 -31 -38 -84 -49 -117 -12 -32 -31 -84 -42 -114
-12 -30 -39 -111 -60 -180 -21 -69 -43 -138 -48 -155 -5 -16 -17 -64 -26 -105
-10 -41 -23 -100 -31 -130 -26 -102 -42 -209 -84 -551 -14 -110 -14 -707 0
-818 40 -327 58 -444 84 -551 8 -30 21 -89 31 -130 9 -41 22 -93 29 -115 7
-22 27 -87 45 -145 17 -58 38 -123 47 -145 8 -22 21 -57 29 -77 34 -93 48
-127 75 -185 16 -35 29 -66 29 -71 0 -13 171 -349 208 -408 18 -28 32 -54 32
-57 0 -4 13 -26 29 -49 16 -24 54 -81 85 -128 78 -121 184 -269 206 -290 3 -3
21 -25 40 -50 18 -25 54 -68 79 -96 25 -27 71 -79 102 -115 73 -82 226 -235
308 -308 36 -31 88 -77 115 -102 43 -38 103 -87 151 -121 6 -4 26 -21 46 -37
19 -17 58 -45 85 -64 199 -135 311 -208 335 -218 8 -4 44 -24 80 -46 35 -21
84 -49 109 -61 25 -13 52 -27 60 -31 28 -17 208 -101 214 -101 4 0 33 -13 65
-29 31 -15 84 -38 117 -49 32 -12 84 -31 114 -42 54 -21 180 -62 250 -82 19
-5 53 -15 75 -23 22 -7 74 -20 115 -29 41 -10 100 -23 130 -31 107 -26 224
-44 551 -84 110 -14 707 -14 818 -1 299 37 459 61 551 85 30 8 89 21 130 31
41 9 93 22 115 29 22 8 56 18 75 23 70 20 196 61 250 82 30 11 84 32 120 45
140 51 470 210 582 281 22 14 47 28 56 32 25 11 135 82 336 219 27 18 63 45
80 59 38 31 49 40 106 83 25 19 68 55 96 80 27 25 79 71 115 102 82 73 235
226 308 308 31 36 77 88 102 115 25 28 61 71 80 96 43 57 52 68 83 106 14 17
41 53 59 80 137 201 208 311 219 336 4 9 19 35 33 58 37 58 160 300 192 374
14 34 35 84 48 111 21 47 36 84 69 173 8 20 21 55 29 77 9 22 30 87 47 145 18
58 38 123 45 145 7 22 20 74 29 115 10 41 23 100 31 130 25 101 50 261 83 540
5 42 12 64 20 62 9 -1 12 80 12 352 0 296 -2 355 -14 359 -9 4 -16 29 -20 74
-15 167 -54 428 -81 533 -8 30 -21 89 -31 130 -9 41 -21 89 -26 105 -5 17 -27
86 -48 155 -21 69 -48 150 -60 180 -11 30 -30 82 -42 115 -12 33 -31 80 -43
105 -13 25 -41 88 -64 140 -23 52 -50 109 -59 127 -9 17 -28 53 -42 80 -14 26
-42 77 -63 112 -22 36 -42 72 -46 80 -10 24 -83 137 -218 335 -18 27 -45 63
-59 80 -31 38 -40 49 -83 106 -19 25 -55 68 -80 96 -25 27 -71 79 -102 115
-73 82 -226 235 -308 308 -36 31 -88 77 -115 102 -28 25 -71 61 -96 80 -57 43
-68 52 -106 83 -17 14 -53 41 -80 59 -201 137 -311 208 -336 219 -9 4 -34 18
-56 32 -118 74 -452 235 -587 282 -38 14 -79 28 -90 33 -102 44 -331 115 -470
146 -38 9 -95 22 -125 30 -113 27 -244 47 -540 83 -43 5 -64 12 -62 20 3 19
-704 17 -711 -2z m763 -350 c217 -26 437 -64 545 -93 50 -13 108 -28 130 -33
111 -24 331 -98 408 -136 16 -8 35 -14 42 -14 13 0 207 -84 265 -114 14 -8 77
-41 140 -73 124 -65 141 -75 250 -143 40 -25 80 -50 89 -55 65 -41 98 -65 110
-79 7 -9 18 -16 23 -16 5 0 46 -28 90 -62 44 -35 92 -72 107 -83 152 -114 522
-484 636 -636 11 -15 48 -63 83 -107 34 -44 62 -85 62 -90 0 -5 7 -16 16 -23
9 -8 28 -32 43 -54 94 -146 216 -353 266 -454 74 -149 155 -329 155 -346 0 -7
6 -26 14 -42 24 -47 34 -74 69 -183 56 -172 67 -208 67 -229 0 -11 6 -35 14
-53 22 -51 55 -213 82 -393 67 -451 69 -828 5 -1230 -36 -226 -46 -279 -68
-360 -13 -49 -28 -110 -33 -135 -5 -25 -29 -106 -54 -180 -65 -195 -76 -224
-87 -234 -5 -6 -9 -18 -9 -28 0 -19 -75 -188 -155 -349 -50 -101 -172 -308
-266 -454 -15 -22 -34 -46 -43 -54 -9 -7 -16 -18 -16 -23 0 -28 -257 -335
-419 -501 -99 -102 -282 -269 -357 -327 -18 -14 -69 -53 -113 -87 -44 -35 -83
-63 -87 -63 -4 0 -18 -10 -30 -21 -13 -12 -47 -37 -76 -55 -99 -62 -369 -224
-374 -224 -3 0 -33 -14 -67 -31 -130 -65 -319 -149 -335 -149 -10 0 -22 -4
-27 -9 -11 -10 -43 -22 -200 -75 -122 -40 -190 -60 -335 -96 -19 -5 -53 -13
-75 -19 -70 -17 -371 -64 -530 -82 -141 -16 -587 -16 -730 0 -195 22 -475 67
-570 92 -38 10 -90 24 -115 30 -78 19 -152 41 -255 75 -157 53 -189 65 -200
75 -5 5 -17 9 -27 9 -19 0 -219 90 -368 166 -141 71 -442 254 -484 293 -12 11
-26 21 -30 21 -17 0 -203 149 -351 281 -167 149 -402 394 -478 498 -12 16 -50
66 -84 110 -35 44 -63 83 -63 87 0 4 -10 18 -21 30 -40 42 -231 357 -295 486
-81 163 -164 348 -164 366 0 10 -4 22 -9 28 -10 10 -22 42 -76 204 -60 180
-65 197 -65 216 0 11 -6 39 -14 64 -36 112 -46 158 -90 450 -31 201 -40 324
-40 575 0 250 7 351 40 565 44 289 45 294 89 455 8 28 21 79 31 115 15 58 56
187 100 310 8 25 20 49 25 54 5 6 9 18 9 28 0 17 82 200 160 358 63 127 260
452 299 494 11 12 21 26 21 30 0 4 28 44 63 88 34 44 71 92 82 107 43 58 249
282 342 372 158 155 464 409 491 409 5 0 16 7 23 16 12 14 45 38 110 79 9 5
49 30 89 55 105 66 173 104 280 158 52 27 104 54 115 60 51 28 248 112 263
112 10 0 22 4 27 9 10 10 29 17 190 72 102 35 172 56 230 69 22 5 81 20 130
33 156 42 533 98 750 111 115 7 501 -5 615 -18z"/>
<path d="M4160 8271 c-58 -4 -132 -13 -165 -19 -33 -6 -105 -18 -160 -27 -175
-28 -443 -96 -554 -140 -36 -14 -70 -25 -76 -25 -30 0 -393 -163 -525 -236
-158 -87 -176 -98 -210 -123 -19 -14 -51 -35 -70 -45 -19 -11 -48 -30 -65 -43
-75 -59 -143 -110 -181 -136 -53 -36 -257 -217 -350 -311 -123 -124 -239 -258
-327 -376 -47 -63 -96 -128 -110 -145 -13 -16 -32 -46 -43 -65 -10 -19 -31
-51 -45 -70 -14 -19 -29 -42 -32 -50 -4 -8 -17 -31 -28 -50 -94 -154 -299
-590 -299 -635 0 -6 -11 -40 -25 -76 -43 -109 -112 -382 -139 -549 -8 -52 -23
-140 -33 -195 -15 -84 -18 -158 -18 -455 1 -365 3 -399 50 -653 8 -42 15 -88
15 -100 0 -24 19 -106 45 -192 8 -27 23 -84 34 -125 50 -185 184 -525 261
-660 5 -8 19 -35 31 -60 13 -25 34 -63 48 -85 14 -22 36 -60 49 -84 86 -158
314 -461 472 -625 153 -160 271 -271 395 -372 96 -78 372 -272 415 -291 8 -4
33 -18 55 -32 22 -14 67 -40 100 -57 33 -17 78 -41 100 -53 41 -22 70 -27 79
-13 2 4 9 122 15 262 6 140 15 305 21 365 5 61 17 279 25 485 8 206 20 436 25
510 6 74 15 247 21 383 11 259 9 277 -30 277 -20 0 -186 62 -260 98 -298 140
-565 491 -682 897 -56 192 -74 282 -89 440 -13 146 -13 398 1 504 13 96 80
344 110 407 10 22 19 43 19 47 0 4 10 28 23 55 133 270 283 456 518 644 104
83 315 186 429 209 25 5 65 13 90 19 96 20 299 2 400 -35 156 -58 256 -112
380 -204 81 -60 290 -267 290 -287 0 -6 7 -17 15 -24 40 -33 196 -298 228
-385 8 -22 31 -85 51 -139 20 -55 36 -112 36 -128 0 -15 6 -45 14 -65 49 -134
49 -599 0 -767 -8 -27 -14 -69 -14 -93 0 -23 -6 -60 -14 -80 -7 -21 -21 -65
-31 -98 -10 -33 -26 -85 -36 -115 -19 -59 -100 -242 -116 -262 -5 -7 -27 -42
-48 -78 -21 -36 -57 -87 -79 -114 -23 -28 -50 -61 -61 -75 -45 -56 -154 -154
-215 -195 -91 -60 -149 -89 -260 -131 -25 -9 -60 -23 -78 -31 -18 -8 -41 -14
-52 -14 -51 0 -51 -23 -19 -565 6 -104 13 -226 15 -270 2 -44 11 -213 19 -375
8 -162 20 -392 25 -510 26 -538 31 -622 41 -730 6 -63 12 -116 13 -118 7 -7
172 -42 266 -57 58 -9 128 -21 155 -26 167 -33 767 -36 920 -4 38 8 83 15 100
15 28 0 96 12 260 46 75 15 258 65 340 93 61 20 59 12 75 301 6 113 15 279 21
370 5 91 14 269 19 395 5 127 14 291 20 365 5 74 10 182 10 240 0 58 4 146 10
195 5 50 12 164 16 255 l6 165 -68 24 c-38 12 -82 28 -99 34 -246 87 -540 348
-594 528 -10 35 -25 130 -32 211 -12 145 -11 226 10 693 14 290 53 763 77 911
8 50 14 116 14 145 0 30 6 108 14 174 8 66 22 183 31 260 8 77 22 194 30 260
8 66 19 158 24 204 5 51 14 87 22 92 17 11 200 11 216 1 10 -6 13 -276 15
-1273 l3 -1264 110 0 110 0 3 1259 c1 927 5 1263 14 1273 8 10 38 13 127 11
l116 -3 5 -1270 5 -1270 110 0 110 0 3 1259 c1 910 5 1263 13 1273 13 15 224
19 246 5 10 -6 13 -276 15 -1273 l3 -1264 104 -3 c68 -2 108 1 117 9 12 10 14
201 14 1266 0 690 2 1259 5 1264 4 5 39 9 79 9 89 0 96 -6 106 -98 4 -37 13
-110 19 -162 11 -89 35 -312 46 -425 3 -27 10 -81 15 -120 5 -38 16 -142 25
-230 9 -88 22 -225 30 -305 8 -80 17 -181 20 -225 3 -44 10 -114 15 -155 17
-131 42 -798 35 -940 -8 -163 -28 -297 -51 -342 -53 -105 -221 -281 -348 -363
-110 -71 -191 -115 -213 -115 -10 0 -27 -6 -38 -13 -11 -8 -48 -22 -82 -32
-39 -12 -65 -25 -68 -36 -3 -9 -1 -86 5 -170 6 -85 15 -247 20 -360 5 -113 14
-275 20 -360 15 -222 30 -529 40 -792 5 -126 11 -231 14 -234 15 -15 74 18
291 167 290 199 627 529 852 835 28 38 62 83 75 99 13 16 34 49 48 72 14 23
48 80 76 126 28 46 65 110 84 143 18 33 39 67 46 76 8 8 14 21 14 27 0 7 20
53 44 104 51 106 107 239 137 325 41 121 51 149 59 178 4 17 18 66 30 110 42
154 48 181 69 310 12 72 26 153 31 180 17 84 30 300 30 495 0 185 -15 474 -26
491 -3 5 -9 39 -14 77 -15 116 -38 244 -59 322 -52 201 -72 269 -92 320 -11
30 -24 69 -29 85 -4 17 -22 64 -40 105 -17 41 -37 91 -44 110 -8 20 -32 72
-55 118 -22 45 -41 87 -41 93 0 7 -6 20 -14 28 -7 9 -30 48 -50 86 -49 92 -85
154 -116 196 -14 19 -33 50 -44 69 -10 19 -30 49 -43 65 -13 17 -63 81 -110
144 -183 247 -466 529 -713 714 -63 47 -131 98 -150 112 -46 35 -199 134 -225
146 -11 5 -36 19 -55 31 -49 29 -326 167 -369 183 -20 8 -70 28 -111 45 -41
18 -88 36 -105 40 -16 5 -55 18 -85 29 -105 41 -380 109 -540 135 -52 9 -135
23 -185 31 -103 18 -629 28 -805 16z"/>
<path d="M2383 5608 c-12 -13 -31 -41 -43 -63 -12 -22 -29 -54 -39 -71 -47
-79 -95 -224 -133 -404 -30 -140 -32 -421 -4 -515 29 -98 80 -243 95 -273 4
-9 20 -42 34 -72 71 -150 144 -249 260 -352 91 -81 150 -124 216 -157 83 -43
122 2 63 71 -53 62 -160 213 -186 263 -15 28 -31 57 -35 65 -22 39 -72 161
-87 210 -9 30 -22 69 -29 85 -24 59 -43 111 -60 170 -9 33 -22 74 -28 90 -6
17 -12 141 -15 277 -4 269 6 369 55 558 18 72 22 100 14 117 -14 30 -51 30
-78 1z"/>
</g>
</svg>
