<?xml version="1.0" standalone="no"?>
<!DOCTYPE svg PUBLIC "-//W3C//DTD SVG 20010904//EN"
 "http://www.w3.org/TR/2001/REC-SVG-20010904/DTD/svg10.dtd">
<svg version="1.0" xmlns="http://www.w3.org/2000/svg"
 width="300.000000pt" height="300.000000pt" viewBox="0 0 300.000000 300.000000"
 preserveAspectRatio="xMidYMid meet">
<metadata>
Created by potrace 1.10, written by Peter Selinger 2001-2011
</metadata>
<g transform="translate(0.000000,300.000000) scale(0.100000,-0.100000)"
fill="#ff0078" stroke="none">
<path d="M602 2497 l-32 -33 0 -877 0 -877 -35 0 -35 0 0 -110 0 -110 635 0
635 0 0 110 0 110 -35 0 -35 0 0 205 c0 199 1 205 20 205 11 0 29 5 39 12 43
26 186 -81 250 -186 19 -31 58 -116 88 -188 77 -189 121 -238 213 -238 91 0
166 60 191 154 14 51 6 180 -16 261 -40 153 -131 347 -230 495 -52 79 -61 97
-51 113 9 15 6 22 -20 45 -63 56 -104 118 -104 159 0 35 -7 46 -73 111 -54 54
-81 73 -103 75 -20 1 -37 12 -55 37 -35 48 -50 59 -100 73 l-44 13 -3 199 -2
200 -37 37 -37 38 -496 0 -496 0 -32 -33z m943 -377 l0 -205 -412 -3 -413 -2
0 210 0 210 413 -2 412 -3 0 -205z m233 -185 c26 -41 27 -54 7 -61 -17 -7 -20
-37 -5 -63 6 -12 5 -39 -2 -79 l-11 -60 68 -100 c94 -140 120 -148 208 -64 31
31 37 33 37 17 0 -30 15 -47 41 -49 59 -3 228 -309 295 -534 32 -108 37 -240
12 -288 -23 -43 -64 -67 -116 -68 -37 -1 -48 4 -72 30 -15 17 -43 69 -61 115
-109 271 -190 380 -328 445 -42 20 -84 40 -93 45 -10 5 -27 9 -38 9 -17 0 -20
7 -20 45 l0 45 150 0 c83 0 150 3 150 8 0 4 -10 25 -23 47 -21 37 -26 40 -72
43 l-50 3 -77 139 -78 139 0 145 0 145 28 -10 c15 -5 37 -25 50 -44z m-293
-185 l0 -35 -115 0 c-113 0 -115 0 -118 23 -7 50 -1 53 120 50 l113 -3 0 -35z
m449 -87 c30 -55 32 -56 56 -43 18 10 24 9 31 -1 6 -10 -5 -27 -33 -56 -23
-24 -46 -43 -50 -43 -4 0 -28 30 -53 67 l-45 68 33 17 c42 23 44 22 61 -9z"/>
</g>
</svg>
