<?xml version="1.0" standalone="no"?>
<!DOCTYPE svg PUBLIC "-//W3C//DTD SVG 20010904//EN"
 "http://www.w3.org/TR/2001/REC-SVG-20010904/DTD/svg10.dtd">
<svg version="1.0" xmlns="http://www.w3.org/2000/svg"
 width="900.000000pt" height="900.000000pt" viewBox="0 0 900.000000 900.000000"
 preserveAspectRatio="xMidYMid meet">
<metadata>
Created by potrace 1.10, written by Peter Selinger 2001-2011
</metadata>
<g transform="translate(0.000000,900.000000) scale(0.100000,-0.100000)"
fill="#fb5607" stroke="none">
<path d="M1877 7561 c-12 -8 -59 -54 -104 -102 l-83 -87 0 -2620 c0 -2380 -1
-2620 -16 -2626 -9 -3 -51 -6 -95 -6 -56 0 -79 -4 -79 -12 -2 -150 0 -642 3
-644 2 -3 3443 -6 3785 -4 10 0 12 69 10 327 l-3 328 -105 5 -105 5 -3 597
c-2 642 -3 634 48 621 11 -3 40 -2 66 2 38 5 49 12 66 41 27 46 32 45 208 -40
93 -46 98 -48 190 -117 136 -101 301 -286 360 -404 6 -11 19 -33 29 -50 35
-54 119 -229 161 -335 12 -30 27 -68 34 -85 8 -16 20 -48 29 -70 135 -355 216
-506 328 -609 102 -95 180 -126 314 -126 215 0 407 104 508 278 20 35 37 67
37 72 0 5 6 24 14 42 44 101 62 381 35 533 -6 33 -14 85 -18 115 -8 53 -14 79
-48 215 -32 125 -109 360 -148 450 -7 17 -30 71 -50 120 -66 158 -171 377
-250 520 -18 33 -40 71 -47 85 -15 27 -92 155 -120 198 -9 15 -23 37 -30 49
-29 48 -95 143 -166 236 l-75 98 32 32 c43 45 42 83 -4 130 -20 21 -41 37 -48
37 -22 1 -63 44 -143 150 -43 58 -97 128 -120 157 -54 66 -58 82 -44 156 10
51 10 68 -1 94 -8 17 -101 122 -208 232 -220 229 -259 255 -359 249 l-55 -3
-68 100 c-114 168 -162 199 -378 246 -88 18 -81 -35 -81 637 l0 595 -95 96
-94 96 -1496 5 c-1290 4 -1499 3 -1518 -9z m2742 -595 c21 -19 21 -22 21 -614
0 -540 -2 -597 -17 -614 -15 -17 -67 -18 -1233 -18 -1015 0 -1219 2 -1229 14
-8 9 -10 181 -9 622 l3 608 25 13 c20 10 270 12 1221 10 1161 -2 1198 -3 1218
-21z m568 -1036 c10 -1 30 -11 44 -23 40 -34 170 -232 164 -249 -3 -8 -24 -28
-45 -44 -59 -43 -74 -115 -35 -164 33 -41 38 -79 25 -168 -7 -48 -19 -112 -26
-142 -8 -30 -14 -76 -14 -102 0 -50 6 -60 195 -333 26 -38 80 -117 119 -174
79 -115 118 -151 190 -175 92 -31 155 4 350 196 62 61 76 62 76 3 0 -31 8 -58
25 -85 35 -55 58 -66 100 -46 36 17 55 20 55 9 0 -5 17 -26 36 -48 58 -64 146
-193 261 -382 133 -219 297 -542 373 -733 11 -30 28 -68 36 -83 8 -16 14 -33
14 -39 0 -5 6 -24 14 -41 8 -18 16 -41 19 -52 3 -11 17 -54 31 -95 158 -457
180 -821 64 -1035 -75 -139 -283 -220 -434 -168 -51 17 -147 102 -175 155 -28
53 -91 184 -105 216 -28 65 -42 98 -59 142 -9 25 -23 59 -30 75 -7 17 -20 50
-30 75 -9 25 -24 61 -32 80 -8 19 -21 49 -27 65 -44 107 -132 281 -186 370
-136 222 -358 445 -539 542 -114 62 -182 93 -266 122 -32 12 -66 21 -74 21 -8
0 -27 14 -41 32 -25 29 -33 32 -96 36 -38 3 -72 10 -76 16 -12 17 -10 244 2
251 6 3 207 6 449 5 399 0 439 1 445 16 3 9 2 22 -4 29 -5 6 -26 43 -46 81
-20 38 -45 86 -56 106 -11 20 -25 41 -32 47 -7 6 -74 12 -151 13 l-138 3 -18
30 c-10 17 -25 44 -33 60 -8 17 -34 62 -56 100 -22 39 -48 84 -56 100 -8 17
-23 44 -34 60 -11 17 -26 44 -34 60 -8 17 -29 53 -45 80 -17 28 -37 64 -45 80
-8 17 -29 55 -47 85 -17 30 -43 77 -58 103 -14 26 -32 58 -38 70 -17 30 -19
847 -2 864 8 8 20 7 45 -3 18 -8 41 -14 51 -14z m-760 -592 c20 -19 23 -31 23
-98 0 -129 25 -120 -347 -120 -311 0 -317 0 -340 22 -20 18 -23 31 -23 90 0
55 4 75 22 98 l22 30 310 0 c304 0 310 0 333 -22z m1364 -365 c64 -110 97
-153 116 -153 8 0 33 14 54 31 47 37 65 35 94 -12 l23 -36 -116 -117 c-65 -64
-124 -121 -132 -126 -21 -13 -65 17 -98 65 -15 22 -29 42 -32 45 -3 3 -9 13
-15 22 -5 9 -47 72 -93 139 -46 67 -80 125 -75 130 4 4 37 22 73 39 36 17 76
37 90 44 47 26 57 20 111 -71z"/>
</g>
</svg>
