<!-- Generated by IcoMoon.io -->
<svg version="1.1" xmlns="http://www.w3.org/2000/svg" width="640" height="640" viewBox="0 0 640 640">
<title></title>
<g id="icomoon-ignore">
</g>
<path fill="#ff5700" d="M416 576h32v64h-448v-64h32v-512c0-35.2 28.8-64 64-64h256c35.346 0 64 28.654 64 64v0 512zM96 64v192h256v-192h-256zM416 320h32c35.346 0 64 28.654 64 64v0 96c0 17.673 14.327 32 32 32s32-14.327 32-32v0-160l-64-64v-64l-64-64 32-32 160 160v224c0 53.019-42.981 96-96 96s-96-42.981-96-96v0-96h-32v-64z"></path>
</svg>
