<?xml version="1.0" standalone="no"?>
<!DOCTYPE svg PUBLIC "-//W3C//DTD SVG 20010904//EN"
 "http://www.w3.org/TR/2001/REC-SVG-20010904/DTD/svg10.dtd">
<svg version="1.0" xmlns="http://www.w3.org/2000/svg"
 width="300.000000pt" height="178.000000pt" viewBox="0 0 300.000000 178.000000"
 preserveAspectRatio="xMidYMid meet">
<metadata>
Created by potrace 1.10, written by Peter Selinger 2001-2011
</metadata>
<g transform="translate(0.000000,178.000000) scale(0.100000,-0.100000)"
fill="#ff006e" stroke="none">
<path d="M830 1608 c-63 -42 -87 -125 -55 -187 21 -41 72 -81 103 -81 15 0 33
-4 41 -9 8 -5 38 -131 77 -327 66 -327 73 -347 128 -388 26 -20 42 -21 424
-24 263 -2 409 0 434 7 61 19 89 63 178 285 90 225 94 254 51 314 -44 62 -45
62 -525 62 l-436 0 -5 23 c-3 12 -14 73 -25 135 -33 189 -51 206 -230 210
-117 3 -127 2 -160 -20z"/>
<path d="M1272 420 c-43 -26 -76 -98 -67 -143 17 -78 75 -127 150 -127 135 0
193 168 90 259 -30 26 -44 31 -88 31 -35 0 -63 -7 -85 -20z"/>
<path d="M1698 402 c-37 -35 -42 -45 -45 -93 -3 -42 0 -61 16 -87 56 -88 167
-96 240 -18 18 19 26 41 29 79 8 99 -46 157 -146 157 -47 0 -57 -4 -94 -38z"/>
</g>
</svg>
